<?xml version="1.0" standalone="no"?>
<!DOCTYPE svg PUBLIC "-//W3C//DTD SVG 20010904//EN"
 "http://www.w3.org/TR/2001/REC-SVG-20010904/DTD/svg10.dtd">
<svg version="1.0" xmlns="http://www.w3.org/2000/svg"
 width="1298.000000pt" height="1298.000000pt" viewBox="0 0 1298.000000 1298.000000"
 preserveAspectRatio="xMidYMid meet">
<metadata>
Created by potrace 1.11, written by Peter Selinger 2001-2013
</metadata>
<g transform="translate(0.000000,1298.000000) scale(0.100000,-0.100000)"
fill="#000000" stroke="none">
<path d="M6425 12933 c-33 -20 -73 -44 -90 -53 -26 -15 -535 -309 -945 -545
-432 -249 -659 -380 -685 -395 -16 -9 -65 -38 -108 -64 -43 -25 -80 -46 -82
-46 -2 0 -60 -34 -130 -75 -69 -41 -128 -75 -131 -75 -2 0 -23 -12 -47 -27
-23 -14 -67 -40 -97 -56 -30 -16 -62 -36 -71 -43 -8 -8 -19 -14 -22 -14 -4 0
-28 -13 -54 -29 -27 -15 -156 -90 -288 -166 -132 -76 -265 -153 -295 -171 -51
-30 -768 -444 -863 -498 -23 -13 -98 -56 -167 -97 -69 -40 -152 -88 -185 -106
-33 -19 -73 -42 -90 -52 -30 -18 -77 -45 -150 -86 -22 -13 -80 -47 -130 -76
-49 -28 -119 -69 -155 -89 -36 -20 -94 -54 -130 -75 -36 -20 -83 -48 -105 -60
-22 -13 -101 -59 -176 -102 -74 -44 -142 -83 -150 -87 -8 -4 -23 -12 -34 -19
-11 -7 -54 -31 -95 -55 l-75 -43 1 -3240 c0 -1781 3 -3241 5 -3242 4 -3 491
-285 579 -334 19 -11 100 -58 180 -105 80 -46 152 -87 160 -91 8 -4 24 -13 35
-20 32 -19 164 -96 370 -215 105 -60 206 -119 225 -131 19 -11 42 -24 50 -28
8 -4 121 -68 250 -143 129 -75 347 -201 485 -281 137 -79 257 -148 266 -154 9
-5 40 -23 70 -39 30 -16 71 -40 92 -53 21 -13 55 -33 75 -45 20 -11 169 -96
330 -190 161 -93 307 -177 325 -187 18 -10 55 -32 83 -48 27 -17 70 -41 95
-55 24 -14 190 -110 369 -213 179 -104 343 -198 366 -211 53 -30 385 -222 404
-234 8 -5 44 -26 80 -46 36 -21 146 -84 245 -142 99 -58 198 -115 220 -127 22
-12 56 -31 75 -42 19 -11 68 -39 107 -63 l73 -42 87 50 c49 27 187 106 308
177 121 70 245 141 275 158 30 16 66 38 80 47 14 9 32 20 40 23 8 4 31 17 50
28 19 12 157 91 305 176 149 86 282 164 297 174 15 11 29 19 32 19 4 0 258
145 346 199 19 11 41 24 49 28 8 4 76 42 150 86 75 44 150 87 166 96 17 10 61
35 99 57 37 21 97 55 132 74 35 19 69 41 76 48 6 6 15 12 18 12 4 0 74 39 156
86 253 147 736 426 789 456 28 16 57 33 65 38 18 11 189 109 240 138 19 10 73
42 120 69 47 28 105 61 130 75 25 14 113 65 195 113 83 48 226 130 318 183 92
54 182 105 199 115 26 15 118 68 326 188 17 11 49 29 70 40 20 12 89 52 152
88 63 37 167 97 230 134 l115 66 0 3240 c0 1782 -2 3241 -5 3244 -6 5 -327
190 -400 230 -30 16 -59 33 -65 37 -12 10 -237 140 -240 140 -2 0 -92 52 -200
115 -109 63 -199 115 -202 115 -2 0 -22 11 -44 26 -38 24 -60 37 -146 85 -21
12 -42 25 -48 29 -5 4 -30 19 -55 32 -61 34 -693 397 -805 463 -93 55 -573
333 -635 367 -19 11 -107 62 -195 113 -88 51 -176 102 -195 113 -19 10 -138
79 -265 152 -126 73 -311 179 -410 236 -99 58 -187 109 -195 114 -8 6 -22 13
-30 17 -8 4 -86 49 -173 100 -88 51 -161 93 -164 93 -3 0 -17 8 -31 19 -15 10
-52 32 -82 49 -30 16 -106 59 -168 96 -62 36 -132 77 -155 90 -23 13 -145 83
-272 156 -126 73 -245 141 -262 152 -82 46 -100 56 -133 76 -19 12 -37 22 -40
22 -3 -1 -32 -17 -65 -37z"/>
</g>
</svg>
